<svg version="1.1" id="prefix__prefix__prefix__Aspose_PDF_for_JavaScript_via_CPP" x="0" y="0" viewBox="0 0 272 272" xmlns="http://www.w3.org/2000/svg"><style>.prefix__st2{fill:#ffcd38}.prefix__st3{fill:#fff}</style><g id="prefix__prefix__prefix__JavaScript_via_CPP"><g id="prefix__prefix__prefix__JavaScript"><path id="prefix__prefix__prefix__prefix__XMLID_24_" d="M151.5 112.7c-22 0-40.6 7.7-56 23.2-15.4 15.4-23.2 34-23.2 56s7.7 40.6 23.2 55.8c5.7 5.8 11.8 10.5 18.4 14.1h-96c-1.5-.1-3-.5-4.5-1.3-2.4-1.2-3.6-3.4-3.6-6.8V58.3c.2-1.7.6-3.2 1.2-4.5 1.2-2.4 3.6-3.6 6.9-3.6h195.5l1.3.3c1.2.2 2.2.5 3 .9 2.5 1.2 3.7 3.5 3.7 6.9v96.2c-3.6-6.6-8.3-12.8-14.1-18.6-15.5-15.5-34.1-23.2-55.8-23.2z" fill-rule="evenodd" clip-rule="evenodd" fill="#fff"/><path id="prefix__prefix__prefix__prefix__XMLID_21_" d="M151.5 112.7c21.7 0 40.3 7.7 55.8 23.2 5.8 5.7 10.5 11.9 14.1 18.6V58.3c0-3.5-1.2-5.8-3.7-6.9-.9-.4-1.9-.7-3-.9l-1.3-.3H17.9c-3.4 0-5.7 1.2-6.9 3.6-.6 1.2-1 2.7-1.2 4.5v195.5c0 3.4 1.2 5.6 3.6 6.8 1.4.8 2.9 1.2 4.5 1.3H114c-6.6-3.6-12.7-8.3-18.4-14.1-15.4-15.3-23.2-33.9-23.2-55.8s7.7-40.6 23.2-56c15.3-15.6 34-23.3 55.9-23.3zm67.1-71.4c2.1.4 3.7.9 4.9 1.6 4.8 2.3 7.2 6.5 7.2 12.5v136.5c0 21.9-7.8 40.5-23.3 55.8-15.5 15.5-34.1 23.3-55.8 23.3H15c-2.3 0-4.7-.6-7.2-1.7C3 266.8.6 262.6.6 256.6V55.4c0-2.4.6-4.8 1.9-7.2C4.8 43.4 9 41 15 41h201.2l2.4.3z" fill-rule="evenodd" clip-rule="evenodd" class="prefix__st2"/><path class="prefix__st2" d="M58.3 85.4c0 5.2-1.7 9.2-5.1 12-3.4 2.8-8.3 4.2-14.6 4.2h-5.2v18.7h-8.2v-50h14.4c6.2 0 10.9 1.3 14 3.8 3.2 2.5 4.7 6.3 4.7 11.3zm-24.8 9.2h4.3c4.2 0 7.2-.7 9.2-2.2 2-1.5 2.9-3.7 2.9-6.8 0-2.9-.9-5-2.6-6.4-1.8-1.4-4.5-2.1-8.2-2.1h-5.7l.1 17.5z"/><g id="prefix__prefix__prefix__prefix___x33__5_"><path class="prefix__st3" d="M200.7 197.5h-42.6c-1.4 0-2.6-1.2-2.6-2.6v-27.8c0-1.4 1.2-2.6 2.6-2.6h42.6c1.4 0 2.6 1.2 2.6 2.6v27.8c.1 1.4-1.1 2.6-2.6 2.6z"/><path class="prefix__st2" d="M160.9 191.6l9.9-10.4 6.8 6.6L188 174l11.5 17.4z"/><circle class="prefix__st2" cx="163.6" cy="174.8" r="2.7"/><g id="prefix__prefix__prefix__prefix__Lines_6_"><path class="prefix__st3" d="M143.2 196.8H121c-2.9 0-5.2-2.4-5.2-5.2 0-2.9 2.4-5.2 5.2-5.2h22.1c2.9 0 5.2 2.4 5.2 5.2.1 2.9-2.3 5.2-5.1 5.2z"/><circle class="prefix__st3" cx="105.2" cy="191.6" r="5.2"/><path class="prefix__st3" d="M143.2 175h-38c-2.9 0-5.2-2.4-5.2-5.2 0-2.9 2.4-5.2 5.2-5.2h38c2.9 0 5.2 2.4 5.2 5.2 0 2.8-2.4 5.2-5.2 5.2zm19 43.4h-57c-2.9 0-5.2-2.4-5.2-5.2 0-2.9 2.4-5.2 5.2-5.2h57c2.9 0 5.2 2.4 5.2 5.2 0 2.9-2.4 5.2-5.2 5.2z"/></g><path class="prefix__st3" d="M162.2 218.4h-1.5c-2.9 0-5.2-2.4-5.2-5.2 0-2.9 2.4-5.2 5.2-5.2h1.5c2.9 0 5.2 2.4 5.2 5.2 0 2.9-2.4 5.2-5.2 5.2zm36 0h-17.9c-2.9 0-5.2-2.4-5.2-5.2 0-2.9 2.4-5.2 5.2-5.2h17.9c2.9 0 5.2 2.4 5.2 5.2 0 2.9-2.4 5.2-5.2 5.2z"/></g></g><g id="prefix__prefix__prefix__CPP"><path d="M255.569 84.72c-.002-4.83-1.035-9.098-3.124-12.761-2.052-3.602-5.125-6.621-9.247-9.008-34.025-19.619-68.083-39.178-102.097-58.817-9.17-5.294-18.061-5.101-27.163.269C100.395 12.39 32.59 51.237 12.385 62.94 4.064 67.757.015 75.129.013 84.711 0 124.166.013 163.62 0 203.076c.002 4.724.991 8.909 2.988 12.517 2.053 3.711 5.169 6.813 9.386 9.254 20.206 11.703 88.02 50.547 101.56 58.536 9.106 5.373 17.997 5.565 27.17.269 34.015-19.64 68.075-39.198 102.105-58.817 4.217-2.44 7.333-5.544 9.386-9.252 1.994-3.608 2.985-7.793 2.987-12.518 0 0 0-78.889-.013-118.345" fill="#5C8DBC" transform="matrix(.38582 0 0 .36263 172.153 2.404)"/><path d="M128.182 143.509L2.988 215.593c2.053 3.711 5.169 6.813 9.386 9.254 20.206 11.703 88.02 50.547 101.56 58.536 9.106 5.373 17.997 5.565 27.17.269 34.015-19.64 68.075-39.198 102.105-58.817 4.217-2.44 7.333-5.544 9.386-9.252l-124.413-72.074" fill="#1A4674" transform="matrix(.38582 0 0 .36263 172.153 2.404)"/><path d="M91.101 164.861c7.285 12.718 20.98 21.296 36.69 21.296 15.807 0 29.58-8.687 36.828-21.541l-36.437-21.107-37.081 21.352" fill="#1A4674" transform="matrix(.38582 0 0 .36263 172.153 2.404)"/><path d="M255.569 84.72c-.002-4.83-1.035-9.098-3.124-12.761l-124.263 71.55 124.413 72.074c1.994-3.608 2.985-7.793 2.987-12.518 0 0 0-78.889-.013-118.345" fill="#1B598E" transform="matrix(.38582 0 0 .36263 172.153 2.404)"/><path d="M248.728 148.661h-9.722v9.724h-9.724v-9.724h-9.721v-9.721h9.721v-9.722h9.724v9.722h9.722v9.721m-35.475 0h-9.721v9.724h-9.722v-9.724h-9.722v-9.721h9.722v-9.722h9.722v9.722h9.721v9.721" fill="#FFF" transform="matrix(.38582 0 0 .36263 172.153 2.404)"/><path d="M164.619 164.616c-7.248 12.854-21.021 21.541-36.828 21.541-15.71 0-29.405-8.578-36.69-21.296a42.062 42.062 0 01-5.574-20.968c0-23.341 18.923-42.263 42.264-42.263 15.609 0 29.232 8.471 36.553 21.059l36.941-21.272c-14.683-25.346-42.096-42.398-73.494-42.398-46.876 0-84.875 38-84.875 84.874 0 15.378 4.091 29.799 11.241 42.238 14.646 25.48 42.137 42.637 73.634 42.637 31.555 0 59.089-17.226 73.714-42.781l-36.886-21.371" fill="#FFF" transform="matrix(.38582 0 0 .36263 172.153 2.404)"/></g></g></svg>